<svg width="320" height="111" viewBox="0 0 320 111" fill="none" xmlns="http://www.w3.org/2000/svg">
<g clip-path="url(#clip0_1_171)">
<g clip-path="url(#clip1_1_171)">
<path d="M10 33C10 28.0294 14.0294 24 19 24H301C305.971 24 310 28.0294 310 33V57C310 61.9706 305.971 66 301 66H19C14.0294 66 10 61.9706 10 57V33Z" fill="#635BFF"/>
<path d="M126.841 39.8359H129.031V46.8818C129.031 47.7021 128.855 48.3931 128.503 48.9546C128.157 49.5161 127.676 49.9385 127.061 50.2217C126.45 50.5049 125.747 50.6465 124.951 50.6465C124.155 50.6465 123.447 50.5049 122.827 50.2217C122.212 49.9385 121.729 49.5161 121.377 48.9546C121.03 48.3931 120.857 47.7021 120.857 46.8818V39.8359H123.054V46.8818C123.054 47.3604 123.13 47.751 123.281 48.0537C123.433 48.3564 123.65 48.5786 123.933 48.7202C124.221 48.8618 124.561 48.9326 124.951 48.9326C125.352 48.9326 125.691 48.8618 125.969 48.7202C126.253 48.5786 126.467 48.3564 126.614 48.0537C126.765 47.751 126.841 47.3604 126.841 46.8818V39.8359ZM132.773 44.2671V50.5H130.664V42.5752H132.642L132.773 44.2671ZM132.466 46.2593H131.895C131.895 45.6733 131.97 45.146 132.122 44.6772C132.273 44.2036 132.485 43.8008 132.759 43.4688C133.032 43.1318 133.357 42.8755 133.733 42.6997C134.114 42.519 134.539 42.4287 135.007 42.4287C135.378 42.4287 135.718 42.4824 136.025 42.5898C136.333 42.6973 136.597 42.8682 136.816 43.1025C137.041 43.3369 137.212 43.647 137.329 44.0327C137.451 44.4185 137.512 44.8896 137.512 45.4463V50.5H135.388V45.439C135.388 45.0874 135.339 44.814 135.242 44.6187C135.144 44.4233 135 44.2866 134.81 44.2085C134.624 44.1255 134.395 44.084 134.121 44.084C133.838 44.084 133.591 44.1401 133.381 44.2524C133.176 44.3647 133.005 44.521 132.869 44.7212C132.737 44.9165 132.637 45.146 132.568 45.4097C132.5 45.6733 132.466 45.9565 132.466 46.2593ZM141.379 48.4492L143.027 42.5752H144.368L143.936 44.8823L142.288 50.5H141.167L141.379 48.4492ZM140.544 42.5752L141.724 48.4419L141.834 50.5H140.515L138.508 42.5752H140.544ZM145.877 48.3467L147.026 42.5752H149.07L147.063 50.5H145.752L145.877 48.3467ZM144.551 42.5752L146.191 48.4053L146.419 50.5H145.291L143.643 44.8896L143.225 42.5752H144.551ZM152.241 44.3037V50.5H150.132V42.5752H152.117L152.241 44.3037ZM154.629 42.5239L154.592 44.4795C154.49 44.4648 154.365 44.4526 154.219 44.4429C154.077 44.4282 153.948 44.4209 153.831 44.4209C153.533 44.4209 153.274 44.46 153.054 44.5381C152.839 44.6113 152.659 44.7212 152.512 44.8677C152.371 45.0142 152.263 45.1924 152.19 45.4023C152.122 45.6123 152.083 45.8516 152.073 46.1201L151.648 45.9883C151.648 45.4756 151.699 45.0044 151.802 44.5747C151.904 44.1401 152.053 43.7617 152.249 43.4395C152.449 43.1172 152.693 42.8682 152.981 42.6924C153.269 42.5166 153.599 42.4287 153.97 42.4287C154.087 42.4287 154.207 42.4385 154.329 42.458C154.451 42.4727 154.551 42.4946 154.629 42.5239ZM159.653 48.7129V45.1826C159.653 44.9287 159.612 44.7114 159.529 44.5308C159.446 44.3452 159.316 44.2012 159.141 44.0986C158.97 43.9961 158.748 43.9448 158.474 43.9448C158.24 43.9448 158.037 43.9863 157.866 44.0693C157.695 44.1475 157.564 44.2622 157.471 44.4136C157.378 44.5601 157.332 44.7334 157.332 44.9336H155.222C155.222 44.5967 155.3 44.2769 155.457 43.9741C155.613 43.6714 155.84 43.4053 156.138 43.1758C156.436 42.9414 156.79 42.7583 157.2 42.6265C157.615 42.4946 158.079 42.4287 158.591 42.4287C159.207 42.4287 159.753 42.5312 160.232 42.7363C160.711 42.9414 161.086 43.249 161.36 43.6592C161.638 44.0693 161.777 44.582 161.777 45.1973V48.5884C161.777 49.0229 161.804 49.3794 161.858 49.6577C161.912 49.9312 161.99 50.1704 162.092 50.3755V50.5H159.961C159.858 50.2852 159.78 50.0166 159.727 49.6943C159.678 49.3672 159.653 49.04 159.653 48.7129ZM159.932 45.6733L159.946 46.8672H158.767C158.489 46.8672 158.247 46.8989 158.042 46.9624C157.837 47.0259 157.669 47.1162 157.537 47.2334C157.405 47.3457 157.307 47.4775 157.244 47.6289C157.185 47.7803 157.156 47.9463 157.156 48.127C157.156 48.3076 157.197 48.4712 157.28 48.6177C157.363 48.7593 157.483 48.8716 157.639 48.9546C157.795 49.0327 157.979 49.0718 158.189 49.0718C158.506 49.0718 158.782 49.0083 159.016 48.8813C159.251 48.7544 159.431 48.5981 159.558 48.4126C159.69 48.2271 159.758 48.0513 159.763 47.8853L160.32 48.7788C160.242 48.979 160.134 49.1865 159.998 49.4014C159.866 49.6162 159.697 49.8188 159.492 50.0093C159.287 50.1948 159.041 50.3486 158.753 50.4707C158.464 50.5879 158.123 50.6465 157.727 50.6465C157.224 50.6465 156.768 50.5464 156.357 50.3462C155.952 50.1411 155.63 49.8604 155.391 49.5039C155.156 49.1426 155.039 48.7324 155.039 48.2734C155.039 47.8584 155.117 47.4897 155.273 47.1675C155.43 46.8452 155.659 46.5742 155.962 46.3545C156.27 46.1299 156.653 45.9614 157.112 45.8491C157.571 45.7319 158.103 45.6733 158.709 45.6733H159.932ZM165.513 44.0986V53.5469H163.403V42.5752H165.359L165.513 44.0986ZM170.53 46.4497V46.6035C170.53 47.1797 170.461 47.7144 170.325 48.2075C170.193 48.7007 169.998 49.1304 169.739 49.4966C169.48 49.8579 169.158 50.1411 168.772 50.3462C168.391 50.5464 167.952 50.6465 167.454 50.6465C166.97 50.6465 166.55 50.5488 166.194 50.3535C165.837 50.1582 165.537 49.8848 165.293 49.5332C165.054 49.1768 164.861 48.7642 164.714 48.2954C164.568 47.8267 164.456 47.3237 164.378 46.7866V46.3838C164.456 45.8076 164.568 45.2803 164.714 44.8018C164.861 44.3184 165.054 43.9009 165.293 43.5493C165.537 43.1929 165.835 42.917 166.187 42.7217C166.543 42.5264 166.961 42.4287 167.439 42.4287C167.942 42.4287 168.384 42.5239 168.765 42.7144C169.15 42.9048 169.473 43.1782 169.732 43.5347C169.995 43.8911 170.193 44.3159 170.325 44.8091C170.461 45.3022 170.53 45.8491 170.53 46.4497ZM168.413 46.6035V46.4497C168.413 46.1128 168.384 45.8027 168.325 45.5195C168.272 45.2314 168.184 44.98 168.062 44.7651C167.944 44.5503 167.788 44.3843 167.593 44.2671C167.402 44.145 167.17 44.084 166.897 44.084C166.609 44.084 166.362 44.1304 166.157 44.2231C165.957 44.3159 165.794 44.4502 165.667 44.626C165.54 44.8018 165.444 45.0117 165.381 45.2559C165.317 45.5 165.278 45.7759 165.264 46.0835V47.1016C165.288 47.4629 165.357 47.7876 165.469 48.0757C165.581 48.3589 165.754 48.5835 165.989 48.7495C166.223 48.9155 166.531 48.9985 166.912 48.9985C167.19 48.9985 167.424 48.9375 167.615 48.8154C167.805 48.6885 167.959 48.5151 168.076 48.2954C168.198 48.0757 168.284 47.8218 168.333 47.5337C168.386 47.2456 168.413 46.9355 168.413 46.6035ZM184.16 44.9263V49.1523C183.994 49.3525 183.738 49.5698 183.391 49.8042C183.044 50.0337 182.598 50.2314 182.051 50.3975C181.504 50.5635 180.842 50.6465 180.066 50.6465C179.378 50.6465 178.75 50.5342 178.184 50.3096C177.617 50.0801 177.129 49.7456 176.719 49.3062C176.314 48.8667 176.001 48.3296 175.781 47.6948C175.562 47.0552 175.452 46.3252 175.452 45.5049V44.8384C175.452 44.0181 175.557 43.2881 175.767 42.6484C175.982 42.0088 176.287 41.4692 176.682 41.0298C177.078 40.5903 177.549 40.2559 178.096 40.0264C178.643 39.7969 179.251 39.6821 179.919 39.6821C180.847 39.6821 181.609 39.8335 182.205 40.1362C182.8 40.4341 183.254 40.8491 183.567 41.3813C183.884 41.9087 184.08 42.5142 184.153 43.1978H182.022C181.968 42.8364 181.865 42.5215 181.714 42.2529C181.563 41.9844 181.345 41.7744 181.062 41.623C180.784 41.4717 180.422 41.396 179.978 41.396C179.612 41.396 179.285 41.4717 178.997 41.623C178.713 41.7695 178.474 41.9868 178.279 42.2749C178.084 42.563 177.935 42.9194 177.832 43.3442C177.73 43.769 177.678 44.2622 177.678 44.8237V45.5049C177.678 46.0615 177.732 46.5547 177.839 46.9844C177.947 47.4092 178.106 47.7681 178.315 48.061C178.53 48.3491 178.794 48.5664 179.107 48.7129C179.419 48.8594 179.783 48.9326 180.198 48.9326C180.544 48.9326 180.833 48.9033 181.062 48.8447C181.296 48.7861 181.484 48.7153 181.626 48.6323C181.773 48.5444 181.885 48.4614 181.963 48.3833V46.4937H179.956V44.9263H184.16ZM188.027 42.5752V50.5H185.911V42.5752H188.027ZM185.779 40.5098C185.779 40.2021 185.886 39.9482 186.101 39.748C186.316 39.5479 186.604 39.4478 186.965 39.4478C187.322 39.4478 187.607 39.5479 187.822 39.748C188.042 39.9482 188.152 40.2021 188.152 40.5098C188.152 40.8174 188.042 41.0713 187.822 41.2715C187.607 41.4717 187.322 41.5718 186.965 41.5718C186.604 41.5718 186.316 41.4717 186.101 41.2715C185.886 41.0713 185.779 40.8174 185.779 40.5098ZM192.459 50.5H190.335V41.8721C190.335 41.2715 190.452 40.7661 190.686 40.356C190.925 39.9409 191.26 39.6284 191.69 39.4185C192.124 39.2036 192.639 39.0962 193.235 39.0962C193.43 39.0962 193.618 39.1108 193.799 39.1401C193.98 39.1646 194.155 39.1963 194.326 39.2354L194.304 40.8247C194.211 40.8003 194.114 40.7832 194.011 40.7734C193.909 40.7637 193.789 40.7588 193.652 40.7588C193.398 40.7588 193.181 40.8027 193.001 40.8906C192.825 40.9736 192.69 41.0981 192.598 41.2642C192.505 41.4302 192.459 41.6328 192.459 41.8721V50.5ZM194.041 42.5752V44.0693H189.155V42.5752H194.041ZM199.028 42.5752V44.0693H194.414V42.5752H199.028ZM195.557 40.6196H197.666V48.1123C197.666 48.3418 197.695 48.5176 197.754 48.6396C197.817 48.7617 197.91 48.8472 198.032 48.896C198.154 48.9399 198.308 48.9619 198.494 48.9619C198.626 48.9619 198.743 48.957 198.845 48.9473C198.953 48.9326 199.043 48.918 199.116 48.9033L199.124 50.4561C198.943 50.5146 198.748 50.561 198.538 50.5952C198.328 50.6294 198.096 50.6465 197.842 50.6465C197.378 50.6465 196.973 50.5708 196.626 50.4194C196.284 50.2632 196.021 50.0142 195.835 49.6724C195.649 49.3306 195.557 48.8813 195.557 48.3247V40.6196Z" fill="white"/>
<path d="M-11 31.2857C-11 25.6051 -6.39493 21 -0.714287 21H321.571C327.252 21 331.857 25.6051 331.857 31.2857V58.7143C331.857 64.3949 327.252 69 321.571 69H-0.714295C-6.39494 69 -11 64.3949 -11 58.7143V31.2857Z" fill="#635BFF"/>
<path d="M122.532 38.9554H125.035V47.0078C125.035 47.9453 124.834 48.7349 124.432 49.3767C124.036 50.0184 123.487 50.5011 122.783 50.8248C122.086 51.1484 121.282 51.3103 120.373 51.3103C119.463 51.3103 118.654 51.1484 117.945 50.8248C117.242 50.5011 116.69 50.0184 116.288 49.3767C115.892 48.7349 115.694 47.9453 115.694 47.0078V38.9554H118.205V47.0078C118.205 47.5547 118.291 48.0011 118.464 48.3471C118.637 48.6931 118.886 48.947 119.209 49.1088C119.539 49.2707 119.926 49.3516 120.373 49.3516C120.83 49.3516 121.218 49.2707 121.536 49.1088C121.86 48.947 122.105 48.6931 122.273 48.3471C122.446 48.0011 122.532 47.5547 122.532 47.0078V38.9554ZM129.313 44.0195V51.1429H126.902V42.0859H129.162L129.313 44.0195ZM128.961 46.2963H128.308C128.308 45.6267 128.395 45.024 128.568 44.4883C128.741 43.947 128.983 43.4866 129.296 43.1071C129.608 42.7221 129.979 42.4291 130.409 42.2282C130.844 42.0218 131.33 41.9185 131.866 41.9185C132.29 41.9185 132.677 41.9799 133.029 42.1027C133.381 42.2254 133.682 42.4208 133.933 42.6886C134.19 42.9565 134.385 43.3108 134.519 43.7517C134.658 44.1925 134.728 44.731 134.728 45.3672V51.1429H132.301V45.3588C132.301 44.957 132.245 44.6445 132.133 44.4213C132.022 44.1981 131.857 44.0419 131.64 43.9526C131.427 43.8577 131.165 43.8103 130.853 43.8103C130.529 43.8103 130.247 43.8744 130.007 44.0028C129.773 44.1311 129.578 44.3097 129.421 44.5385C129.271 44.7617 129.156 45.024 129.078 45.3253C129 45.6267 128.961 45.9503 128.961 46.2963ZM139.148 48.7991L141.031 42.0859H142.563L142.069 44.7227L140.186 51.1429H138.905L139.148 48.7991ZM138.194 42.0859L139.541 48.7907L139.667 51.1429H138.16L135.867 42.0859H138.194ZM144.287 48.6819L145.602 42.0859H147.937L145.643 51.1429H144.145L144.287 48.6819ZM142.772 42.0859L144.647 48.7489L144.907 51.1429H143.618L141.734 44.731L141.257 42.0859H142.772ZM151.561 44.0614V51.1429H149.151V42.0859H151.419L151.561 44.0614ZM154.29 42.0273L154.248 44.2623C154.131 44.2455 153.989 44.2316 153.821 44.2204C153.66 44.2037 153.512 44.1953 153.378 44.1953C153.037 44.1953 152.742 44.24 152.491 44.3292C152.245 44.4129 152.039 44.5385 151.871 44.7059C151.709 44.8733 151.586 45.077 151.503 45.317C151.425 45.5569 151.38 45.8304 151.369 46.1373L150.883 45.9866C150.883 45.4007 150.942 44.8622 151.059 44.3711C151.176 43.8744 151.347 43.442 151.57 43.0737C151.799 42.7054 152.078 42.4208 152.407 42.2199C152.736 42.019 153.113 41.9185 153.537 41.9185C153.671 41.9185 153.807 41.9297 153.947 41.952C154.086 41.9688 154.201 41.9939 154.29 42.0273ZM160.032 49.1004V45.0659C160.032 44.7757 159.985 44.5273 159.89 44.3209C159.795 44.1088 159.647 43.9442 159.446 43.827C159.251 43.7098 158.997 43.6512 158.685 43.6512C158.417 43.6512 158.185 43.6987 157.99 43.7935C157.795 43.8828 157.644 44.014 157.538 44.1869C157.432 44.3544 157.379 44.5525 157.379 44.7813H154.968C154.968 44.3962 155.057 44.0307 155.236 43.6847C155.415 43.3387 155.674 43.0346 156.015 42.7723C156.355 42.5045 156.759 42.2952 157.228 42.1445C157.703 41.9939 158.233 41.9185 158.819 41.9185C159.522 41.9185 160.147 42.0357 160.694 42.2701C161.241 42.5045 161.67 42.856 161.983 43.3248C162.301 43.7935 162.46 44.3795 162.46 45.0826V48.9582C162.46 49.4548 162.491 49.8622 162.552 50.1802C162.613 50.4927 162.703 50.7662 162.82 51.0006V51.1429H160.384C160.267 50.8973 160.177 50.5904 160.116 50.2221C160.06 49.8482 160.032 49.4743 160.032 49.1004ZM160.35 45.6267L160.367 46.9911H159.02C158.701 46.9911 158.425 47.0273 158.191 47.0999C157.956 47.1724 157.764 47.2757 157.613 47.4096C157.463 47.5379 157.351 47.6886 157.278 47.8616C157.211 48.0346 157.178 48.2243 157.178 48.4308C157.178 48.6373 157.225 48.8242 157.32 48.9916C157.415 49.1535 157.552 49.2818 157.73 49.3767C157.909 49.466 158.118 49.5106 158.358 49.5106C158.721 49.5106 159.036 49.4381 159.304 49.293C159.572 49.1479 159.778 48.9693 159.924 48.7573C160.074 48.5452 160.152 48.3443 160.158 48.1546L160.794 49.1758C160.705 49.4046 160.582 49.6417 160.426 49.8873C160.275 50.1328 160.083 50.3644 159.848 50.582C159.614 50.7941 159.332 50.9699 159.003 51.1094C158.674 51.2433 158.283 51.3103 157.831 51.3103C157.256 51.3103 156.734 51.1959 156.266 50.9671C155.802 50.7327 155.434 50.4118 155.161 50.0045C154.893 49.5915 154.759 49.1228 154.759 48.5982C154.759 48.1239 154.848 47.7026 155.027 47.3343C155.205 46.966 155.468 46.6563 155.814 46.4051C156.165 46.1484 156.603 45.9559 157.128 45.8276C157.652 45.6936 158.261 45.6267 158.953 45.6267H160.35ZM166.729 43.827V54.625H164.318V42.0859H166.553L166.729 43.827ZM172.463 46.514V46.6897C172.463 47.3482 172.384 47.9593 172.228 48.5229C172.078 49.0865 171.854 49.5776 171.559 49.9961C171.263 50.409 170.895 50.7327 170.454 50.9671C170.018 51.1959 169.516 51.3103 168.947 51.3103C168.395 51.3103 167.915 51.1987 167.507 50.9754C167.1 50.7522 166.757 50.4397 166.478 50.0379C166.204 49.6306 165.984 49.159 165.816 48.6233C165.649 48.0876 165.521 47.5128 165.431 46.899V46.4386C165.521 45.7801 165.649 45.1775 165.816 44.6306C165.984 44.0781 166.204 43.601 166.478 43.1992C166.757 42.7919 167.097 42.4766 167.499 42.2534C167.906 42.0301 168.383 41.9185 168.93 41.9185C169.505 41.9185 170.01 42.0273 170.445 42.245C170.886 42.4626 171.254 42.7751 171.55 43.1825C171.852 43.5898 172.078 44.0753 172.228 44.639C172.384 45.2026 172.463 45.8276 172.463 46.514ZM170.044 46.6897V46.514C170.044 46.1289 170.01 45.7746 169.943 45.4509C169.882 45.1217 169.781 44.8343 169.642 44.5887C169.508 44.3432 169.329 44.1535 169.106 44.0195C168.888 43.88 168.623 43.8103 168.311 43.8103C167.982 43.8103 167.7 43.8633 167.465 43.9693C167.237 44.0753 167.05 44.2288 166.905 44.4297C166.759 44.6306 166.651 44.8705 166.578 45.1496C166.506 45.4286 166.461 45.7439 166.444 46.0954V47.2589C166.472 47.6719 166.55 48.043 166.679 48.3722C166.807 48.6959 167.005 48.9526 167.273 49.1423C167.541 49.332 167.892 49.4269 168.328 49.4269C168.646 49.4269 168.914 49.3571 169.131 49.2176C169.349 49.0725 169.525 48.8744 169.658 48.6233C169.798 48.3722 169.896 48.082 169.951 47.7528C170.013 47.4236 170.044 47.0692 170.044 46.6897ZM188.04 44.7729V49.6027C187.85 49.8315 187.557 50.0798 187.161 50.3477C186.765 50.6099 186.254 50.8359 185.629 51.0257C185.004 51.2154 184.248 51.3103 183.361 51.3103C182.574 51.3103 181.857 51.1819 181.21 50.9252C180.562 50.6629 180.004 50.2807 179.536 49.7785C179.073 49.2762 178.715 48.6624 178.464 47.9369C178.213 47.2059 178.088 46.3717 178.088 45.4342V44.6724C178.088 43.7349 178.208 42.9007 178.448 42.1696C178.693 41.4386 179.042 40.822 179.494 40.3198C179.946 39.8175 180.484 39.4353 181.109 39.173C181.734 38.9107 182.429 38.7796 183.194 38.7796C184.254 38.7796 185.124 38.9526 185.805 39.2986C186.486 39.639 187.005 40.1133 187.362 40.7215C187.725 41.3242 187.948 42.0162 188.032 42.7974H185.596C185.535 42.3845 185.417 42.0246 185.244 41.7176C185.071 41.4107 184.823 41.1708 184.499 40.9978C184.181 40.8248 183.768 40.7383 183.261 40.7383C182.842 40.7383 182.468 40.8248 182.139 40.9978C181.815 41.1652 181.542 41.4135 181.319 41.7427C181.095 42.072 180.925 42.4794 180.808 42.9648C180.691 43.4503 180.632 44.014 180.632 44.6557V45.4342C180.632 46.0703 180.694 46.6339 180.816 47.125C180.939 47.6105 181.121 48.0207 181.36 48.3555C181.606 48.6847 181.907 48.933 182.265 49.1004C182.622 49.2679 183.037 49.3516 183.512 49.3516C183.908 49.3516 184.237 49.3181 184.499 49.2511C184.767 49.1842 184.982 49.1032 185.144 49.0084C185.311 48.9079 185.44 48.8131 185.529 48.7238V46.5642H183.235V44.7729H188.04ZM192.46 42.0859V51.1429H190.041V42.0859H192.46ZM189.89 39.7255C189.89 39.3739 190.013 39.0837 190.258 38.8549C190.504 38.6261 190.833 38.5117 191.246 38.5117C191.653 38.5117 191.98 38.6261 192.225 38.8549C192.477 39.0837 192.602 39.3739 192.602 39.7255C192.602 40.077 192.477 40.3672 192.225 40.596C191.98 40.8248 191.653 40.9392 191.246 40.9392C190.833 40.9392 190.504 40.8248 190.258 40.596C190.013 40.3672 189.89 40.077 189.89 39.7255ZM197.524 51.1429H195.097V41.2824C195.097 40.596 195.23 40.0184 195.498 39.5497C195.772 39.0753 196.154 38.7182 196.645 38.4782C197.142 38.2327 197.73 38.1099 198.411 38.1099C198.634 38.1099 198.849 38.1267 199.056 38.1602C199.262 38.1881 199.463 38.2243 199.658 38.269L199.633 40.0854C199.527 40.0575 199.416 40.038 199.299 40.0268C199.181 40.0156 199.045 40.01 198.888 40.01C198.598 40.01 198.35 40.0603 198.143 40.1607C197.943 40.2556 197.789 40.3979 197.683 40.5876C197.577 40.7773 197.524 41.0089 197.524 41.2824V51.1429ZM199.332 42.0859V43.7935H193.749V42.0859H199.332ZM205.032 42.0859V43.7935H199.759V42.0859H205.032ZM201.065 39.851H203.475V48.4141C203.475 48.6763 203.509 48.8772 203.576 49.0167C203.648 49.1563 203.754 49.2539 203.894 49.3097C204.033 49.3599 204.209 49.385 204.421 49.385C204.572 49.385 204.706 49.3795 204.823 49.3683C204.946 49.3516 205.049 49.3348 205.133 49.3181L205.141 51.0926C204.935 51.1596 204.711 51.2126 204.472 51.2517C204.232 51.2907 203.967 51.3103 203.676 51.3103C203.146 51.3103 202.683 51.2238 202.287 51.0508C201.896 50.8722 201.595 50.5876 201.383 50.197C201.171 49.8064 201.065 49.293 201.065 48.6568V39.851Z" fill="white"/>
<path d="M346.515 22.1014L314.873 41.5846L331.794 46.2857L300 72.3953" stroke="white" stroke-opacity="0.2" stroke-width="5.06931"/>
</g>
</g>
<defs>
<clipPath id="clip0_1_171">
<rect width="320" height="111" fill="white"/>
</clipPath>
<clipPath id="clip1_1_171">
<path d="M10 33C10 28.0294 14.0294 24 19 24H301C305.971 24 310 28.0294 310 33V57C310 61.9706 305.971 66 301 66H19C14.0294 66 10 61.9706 10 57V33Z" fill="white"/>
</clipPath>
</defs>
</svg>
