<svg width="17" height="16" viewBox="0 0 17 16" fill="none" xmlns="http://www.w3.org/2000/svg">
<path d="M4.51346 2V3.5M11.5347 2V3.5M2.00586 12.5V5C2.00586 4.60218 2.16437 4.22064 2.44653 3.93934C2.72869 3.65804 3.11138 3.5 3.51042 3.5H12.5378C12.9368 3.5 13.3195 3.65804 13.6017 3.93934C13.8838 4.22064 14.0423 4.60218 14.0423 5V12.5M2.00586 12.5C2.00586 12.8978 2.16437 13.2794 2.44653 13.5607C2.72869 13.842 3.11138 14 3.51042 14H12.5378C12.9368 14 13.3195 13.842 13.6017 13.5607C13.8838 13.2794 14.0423 12.8978 14.0423 12.5M2.00586 12.5V7.5C2.00586 7.10218 2.16437 6.72064 2.44653 6.43934C2.72869 6.15804 3.11138 6 3.51042 6H12.5378C12.9368 6 13.3195 6.15804 13.6017 6.43934C13.8838 6.72064 14.0423 7.10218 14.0423 7.5V12.5" stroke="#635BFF" stroke-linecap="round" stroke-linejoin="round"/>
</svg>
