<svg width="311" height="78" viewBox="0 0 311 78" fill="none" xmlns="http://www.w3.org/2000/svg">
<g clip-path="url(#clip0_1_4673)">
<path d="M246.405 26.1077C243.123 32.239 241.979 39.076 242.841 45.6572C244.944 61.7132 258.601 73.7993 274.826 73.7993C292.636 73.7993 307.076 59.3048 307.076 41.4315C307.076 28.2691 299.147 16.5006 287.172 11.525C283.291 9.91054 279.103 9.05481 274.826 9.05481C273.832 9.05481 273.031 8.25201 273.031 7.25513C273.031 6.25824 273.832 5.45544 274.826 5.45544C279.587 5.45544 284.242 6.3994 288.544 8.19026C301.875 13.7305 310.683 26.7693 310.683 41.4403C310.683 61.3162 294.625 77.4339 274.826 77.4339C256.77 77.4339 241.627 64.0069 239.278 46.1424C238.319 38.8025 239.603 31.1627 243.29 24.3256L240.413 22.6583C239.929 22.376 240.008 21.7143 240.501 21.4673L248.772 17.3298C249.15 17.1357 249.643 17.418 249.669 17.8503L250.241 27.1046C250.321 27.6515 249.74 28.0573 249.256 27.775L246.405 26.1077ZM276.032 37.0558C277.977 37.5939 279.34 39.3848 279.34 41.4226C279.34 43.9193 277.325 45.9483 274.835 45.9483C274.492 45.9483 274.149 45.913 273.823 45.8336C273.779 45.8866 273.727 45.9395 273.683 45.9924L263.836 55.873C262.895 56.817 261.372 56.817 260.44 55.873C259.498 54.9291 259.498 53.4029 260.44 52.4589L270.286 42.5783C270.339 42.5254 270.392 42.4813 270.444 42.4372C270.374 42.1107 270.33 41.7755 270.33 41.4226C270.33 39.3848 271.685 37.6027 273.639 37.0558V14.6656C273.639 13.9951 274.175 13.457 274.844 13.457C275.504 13.457 276.05 13.9951 276.05 14.6656V37.0558H276.032Z" fill="#FFCD1B"/>
<path d="M276.903 60.0117C279.692 59.7029 282.332 58.7678 284.655 57.321C287.224 55.7242 289.406 53.4923 290.964 50.7839V50.7751C293.533 46.3024 294.061 41.2121 292.82 36.5805C291.588 31.9578 288.597 27.8027 284.135 25.2267C283.564 24.9003 282.956 24.5915 282.314 24.3092C281.689 24.0357 281.056 23.7975 280.413 23.5946C279.78 23.4005 279.428 22.7212 279.622 22.086C279.815 21.4509 280.493 21.098 281.126 21.2921C281.865 21.5214 282.587 21.7949 283.282 22.1037C283.959 22.4036 284.646 22.7477 285.323 23.1447H285.332C290.365 26.0559 293.735 30.7404 295.135 35.963C296.525 41.1768 295.935 46.9287 293.031 51.9837C291.272 55.0449 288.808 57.5592 285.904 59.3677C283.212 61.0439 280.132 62.1113 276.894 62.4377V64.6079C276.894 65.1637 276.295 65.4108 275.82 65.1284L270.268 61.8643C269.898 61.6526 269.898 61.0439 270.268 60.8321L275.82 57.568C276.251 57.224 276.894 57.5327 276.894 58.0885V60.0117H276.903ZM284.083 17.8427C282.912 17.3839 281.724 17.0046 280.51 16.7311C279.868 16.5811 279.463 15.9371 279.613 15.2931C279.762 14.6491 280.405 14.2433 281.047 14.3845C282.384 14.6932 283.687 15.099 284.963 15.6019C293.084 18.8131 299.261 25.6942 301.54 34.2427C305.491 49.0284 296.718 64.2727 281.988 68.2338C272.468 70.7921 262.349 68.0485 255.406 61.1762C253.884 59.6676 252.538 57.9827 251.394 56.1565L249.317 57.3651C248.842 57.6386 248.305 57.2504 248.332 56.6946L248.657 50.0693C248.675 49.6459 249.176 49.3548 249.555 49.5488L255.432 52.5748C255.952 52.7777 256.004 53.4923 255.52 53.7657L253.47 54.9479C254.5 56.5888 255.714 58.1062 257.087 59.4559C263.431 65.7372 272.653 68.2426 281.364 65.896C294.818 62.2789 302.825 48.3579 299.217 34.8603C297.123 27.044 291.509 20.7804 284.083 17.8427Z" fill="#FFCD1B"/>
<path d="M18.9535 20.8147H38.1182V37.2677C34.2025 40.9641 28.6414 42.8167 21.4349 42.8167C14.8883 42.8167 9.67913 41.0699 5.80748 37.5764C1.93583 34.0829 0 29.372 0 23.4348C0 17.4976 1.90063 12.7779 5.70189 9.26672C9.50315 5.75557 14.5011 4 20.6957 4C27.3831 4 32.7155 5.79968 36.6927 9.39905L30.8324 15.8391C28.2983 13.6777 24.9722 12.5926 20.8541 12.5926C17.4752 12.5926 14.7739 13.5718 12.7501 15.5303C10.7262 17.4888 9.71433 20.1266 9.71433 23.4436C9.71433 26.9371 10.7966 29.6543 12.9612 31.5863C15.1258 33.5271 18.1088 34.4976 21.91 34.4976C25.1481 34.4976 27.6999 33.8888 29.5653 32.6626V28.631H18.9535V20.8147Z" fill="#2E354B"/>
<path d="M44.4976 42.0323V4.78589H53.9479V42.0323H44.4976Z" fill="#2E354B"/>
<path d="M61.8142 42.0323V4.78589H90.0597V13.2197H71.0534V21.7064H87.1559V29.9814H71.0534V42.0323H61.8142Z" fill="#2E354B"/>
<path d="M104.622 42.0323V13.3785H93.1653V4.78589H125.414V13.3785H114.063V42.0323H104.622Z" fill="#2E354B"/>
<path d="M160.946 42.8167C154.963 42.8167 150.079 41.0258 146.296 37.4441C142.512 33.8624 140.62 29.1956 140.62 23.4348C140.62 17.7093 142.494 13.0337 146.243 9.42551C149.991 5.81733 154.892 4 160.946 4C166.965 4 171.866 5.79968 175.65 9.39905C179.433 12.9984 181.325 17.6741 181.325 23.4348C181.325 29.1603 179.451 33.8271 175.703 37.4176C171.954 41.017 167.035 42.8167 160.946 42.8167ZM153.238 31.2423C155.174 33.236 157.743 34.2241 160.946 34.2241C164.149 34.2241 166.727 33.236 168.681 31.2687C170.634 29.2926 171.611 26.6813 171.611 23.4348C171.611 20.1883 170.643 17.5682 168.707 15.5744C166.771 13.5807 164.184 12.5926 160.946 12.5926C157.779 12.5926 155.218 13.5895 153.265 15.5744C151.311 17.5682 150.334 20.1883 150.334 23.4348C150.334 26.646 151.302 29.2485 153.238 31.2423Z" fill="#2E354B"/>
<path d="M213.046 4.78548H222.232V42.1377H217.481L196.785 21.4943V42.0318H187.598V4.73254H192.297L213.046 25.323V4.78548Z" fill="#2E354B"/>
<path d="M14.5178 78.0001C10.1446 78.0001 6.13215 77.1179 2.47168 75.3623L5.02345 69.5751C8.21756 71.1719 11.2797 71.9747 14.2098 71.9747C16.876 71.9747 18.2135 71.1454 18.2135 69.4957C18.2135 68.7106 17.8439 68.1019 17.1136 67.6872C16.3832 67.2638 15.1337 66.8844 13.3827 66.5492C9.88061 65.8699 7.24965 64.8907 5.49861 63.6203C3.74756 62.3499 2.86764 60.3915 2.86764 57.736C2.86764 54.9836 3.80036 52.8134 5.65699 51.2431C7.51363 49.6728 10.2238 48.8788 13.7787 48.8788C17.8879 48.8788 21.4428 49.6022 24.4521 51.0402L21.6276 56.7039C18.803 55.5747 16.1984 55.0101 13.8139 55.0101C11.3061 55.0101 10.0478 55.7335 10.0478 57.1714C10.0478 57.9831 10.5054 58.5918 11.4205 58.9976C12.3356 59.4034 13.9546 59.8533 16.2864 60.3562C17.7471 60.6473 18.9966 60.9825 20.0349 61.3795C21.0644 61.7765 22.0147 62.2882 22.877 62.9322C23.7394 63.5762 24.3905 64.3966 24.8217 65.3935C25.2528 66.3904 25.4728 67.5725 25.4728 68.9311C25.4728 74.9918 21.8211 78.0001 14.5178 78.0001Z" fill="#FFCD1B"/>
<path d="M43.3274 78C38.8046 78 35.1969 76.6855 32.5132 74.0654C29.8294 71.4452 28.4919 67.8723 28.4919 63.3643C28.4919 58.8828 29.8294 55.3451 32.5132 52.7603C35.1969 50.1755 38.7958 48.8875 43.3274 48.8875C45.9144 48.8875 48.2726 49.3638 50.3932 50.3254C52.5138 51.287 54.2648 52.6015 55.6551 54.2777L50.2788 58.7592C49.5749 57.7359 48.6333 56.9154 47.4718 56.2979C46.3103 55.6804 45.0081 55.3716 43.565 55.3716C41.154 55.3716 39.2446 56.0774 37.8367 57.4977C36.42 58.918 35.7161 60.8677 35.7161 63.3643C35.7161 65.8786 36.42 67.8723 37.8367 69.328C39.2534 70.7836 41.1628 71.5158 43.565 71.5158C46.5215 71.5158 48.7565 70.4042 50.2788 68.1723L55.6551 72.698C52.7162 76.2356 48.6157 78 43.3274 78Z" fill="#FFCD1B"/>
<path d="M59.2969 77.4176V49.4343H66.1691V61.3528H77.1593V49.4343H84.0315V77.4088H77.1593V67.6517H66.1691V77.4088H59.2969V77.4176Z" fill="#FFCD1B"/>
<path d="M89.5229 77.4176V49.4343H110.597V55.5303H96.1927V60.8058H108.318V66.5137H96.1927V71.3128H111.107V77.4088H89.5229V77.4176Z" fill="#FFCD1B"/>
<path d="M115.418 77.4176V49.4343H126.796C131.195 49.4343 134.61 50.5988 137.056 52.919C139.502 55.2392 140.725 58.6268 140.725 63.0907C140.725 67.5723 139.537 71.0834 137.17 73.6153C134.803 76.1473 131.371 77.4088 126.866 77.4088H115.418V77.4176ZM122.088 71.154H127.069C128.978 71.154 130.527 70.4835 131.723 69.1514C132.911 67.8105 133.51 65.7903 133.51 63.0907C133.51 60.7529 132.911 58.9444 131.706 57.6652C130.5 56.3772 128.908 55.7332 126.919 55.7332H122.088V71.154Z" fill="#FFCD1B"/>
<path d="M157.531 77.9999C153.553 77.9999 150.5 77.0118 148.371 75.0445C146.241 73.0772 145.177 70.1924 145.177 66.3902V49.4343H152.198V64.7052C152.198 67.0959 152.638 68.8162 153.509 69.8748C154.389 70.9335 155.727 71.4716 157.531 71.4716C159.361 71.4716 160.725 70.9423 161.613 69.8748C162.502 68.8162 162.951 67.0871 162.951 64.7052V49.4343H169.937V66.3902C169.937 70.2189 168.89 73.1125 166.796 75.0622C164.693 77.0295 161.613 77.9999 157.531 77.9999Z" fill="#FFCD1B"/>
<path d="M175.192 77.4176V49.4343H182.213V70.9599H195.791V77.4088H175.192V77.4176Z" fill="#FFCD1B"/>
<path d="M199.68 77.4176V49.4343H220.754V55.5303H206.35V60.8058H218.475V66.5137H206.35V71.3128H221.265V77.4088H199.68V77.4176Z" fill="#FFCD1B"/>
</g>
<defs>
<clipPath id="clip0_1_4673">
<rect width="311" height="78" fill="white"/>
</clipPath>
</defs>
</svg>
