<svg width="311" height="74" viewBox="0 0 311 74" fill="none" xmlns="http://www.w3.org/2000/svg">
<path d="M246.405 22.1077C243.123 28.239 241.979 35.076 242.841 41.6572C244.944 57.7132 258.601 69.7993 274.826 69.7993C292.636 69.7993 307.076 55.3048 307.076 37.4315C307.076 24.2691 299.147 12.5006 287.172 7.52496C283.291 5.91054 279.103 5.05481 274.826 5.05481C273.832 5.05481 273.031 4.25201 273.031 3.25513C273.031 2.25824 273.832 1.45544 274.826 1.45544C279.587 1.45544 284.242 2.3994 288.544 4.19026C301.875 9.73046 310.683 22.7693 310.683 37.4403C310.683 57.3162 294.625 73.4339 274.826 73.4339C256.77 73.4339 241.627 60.0069 239.278 42.1424C238.319 34.8025 239.603 27.1627 243.29 20.3256L240.413 18.6583C239.929 18.376 240.008 17.7143 240.501 17.4673L248.772 13.3298C249.15 13.1357 249.643 13.418 249.669 13.8503L250.241 23.1046C250.321 23.6515 249.74 24.0573 249.256 23.775L246.405 22.1077ZM276.032 33.0558C277.977 33.5939 279.34 35.3848 279.34 37.4226C279.34 39.9193 277.325 41.9483 274.835 41.9483C274.492 41.9483 274.149 41.913 273.823 41.8336C273.779 41.8866 273.727 41.9395 273.683 41.9924L263.836 51.873C262.895 52.817 261.372 52.817 260.44 51.873C259.498 50.9291 259.498 49.4029 260.44 48.4589L270.286 38.5783C270.339 38.5254 270.392 38.4813 270.444 38.4372C270.374 38.1107 270.33 37.7755 270.33 37.4226C270.33 35.3848 271.685 33.6027 273.639 33.0558V10.6656C273.639 9.99512 274.175 9.45697 274.844 9.45697C275.504 9.45697 276.05 9.99512 276.05 10.6656V33.0558H276.032Z" fill="#FFCD1B"/>
<path d="M276.903 56.0117C279.692 55.7029 282.332 54.7678 284.655 53.321C287.224 51.7242 289.406 49.4923 290.964 46.7839V46.7751C293.533 42.3024 294.061 37.2121 292.82 32.5805C291.588 27.9578 288.597 23.8027 284.135 21.2267C283.564 20.9003 282.956 20.5915 282.314 20.3092C281.689 20.0357 281.056 19.7975 280.413 19.5946C279.78 19.4005 279.428 18.7212 279.622 18.086C279.815 17.4509 280.493 17.098 281.126 17.2921C281.865 17.5214 282.587 17.7949 283.282 18.1037C283.959 18.4036 284.646 18.7477 285.323 19.1447H285.332C290.365 22.0559 293.735 26.7404 295.135 31.963C296.525 37.1768 295.935 42.9287 293.031 47.9837C291.272 51.0449 288.808 53.5592 285.904 55.3677C283.212 57.0439 280.132 58.1113 276.894 58.4377V60.6079C276.894 61.1637 276.295 61.4108 275.82 61.1284L270.268 57.8643C269.898 57.6526 269.898 57.0439 270.268 56.8321L275.82 53.568C276.251 53.224 276.894 53.5327 276.894 54.0885V56.0117H276.903ZM284.083 13.8427C282.912 13.3839 281.724 13.0046 280.51 12.7311C279.868 12.5811 279.463 11.9371 279.613 11.2931C279.762 10.6491 280.405 10.2433 281.047 10.3845C282.384 10.6932 283.687 11.099 284.963 11.6019C293.084 14.8131 299.261 21.6942 301.54 30.2427C305.491 45.0284 296.718 60.2727 281.988 64.2338C272.468 66.7921 262.349 64.0485 255.406 57.1762C253.884 55.6676 252.538 53.9827 251.394 52.1565L249.317 53.3651C248.842 53.6386 248.305 53.2504 248.332 52.6946L248.657 46.0693C248.675 45.6459 249.176 45.3548 249.555 45.5488L255.432 48.5748C255.952 48.7777 256.004 49.4923 255.52 49.7657L253.47 50.9479C254.5 52.5888 255.714 54.1062 257.087 55.4559C263.431 61.7372 272.653 64.2426 281.364 61.896C294.818 58.2789 302.825 44.3579 299.217 30.8603C297.123 23.044 291.509 16.7804 284.083 13.8427Z" fill="#FFCD1B"/>
<path d="M18.9535 16.8147H38.1182V33.2677C34.2025 36.9641 28.6414 38.8167 21.4349 38.8167C14.8883 38.8167 9.67913 37.0699 5.80748 33.5764C1.93583 30.0829 0 25.372 0 19.4348C0 13.4976 1.90063 8.77786 5.70189 5.26672C9.50315 1.75557 14.5011 0 20.6957 0C27.3831 0 32.7155 1.79968 36.6927 5.39905L30.8324 11.8391C28.2983 9.6777 24.9722 8.5926 20.8541 8.5926C17.4752 8.5926 14.7739 9.57184 12.7501 11.5303C10.7262 13.4888 9.71433 16.1266 9.71433 19.4436C9.71433 22.9371 10.7966 25.6543 12.9612 27.5863C15.1258 29.5271 18.1088 30.4976 21.91 30.4976C25.1481 30.4976 27.6999 29.8888 29.5653 28.6626V24.631H18.9535V16.8147Z" fill="white"/>
<path d="M44.4976 38.0323V0.785889H53.9479V38.0323H44.4976Z" fill="white"/>
<path d="M61.8142 38.0323V0.785889H90.0597V9.21969H71.0534V17.7064H87.1559V25.9814H71.0534V38.0323H61.8142Z" fill="white"/>
<path d="M104.622 38.0323V9.37849H93.1653V0.785889H125.414V9.37849H114.063V38.0323H104.622Z" fill="white"/>
<path d="M160.946 38.8167C154.963 38.8167 150.079 37.0258 146.296 33.4441C142.512 29.8624 140.62 25.1956 140.62 19.4348C140.62 13.7093 142.494 9.0337 146.243 5.42551C149.991 1.81733 154.892 0 160.946 0C166.965 0 171.866 1.79968 175.65 5.39905C179.433 8.99841 181.325 13.6741 181.325 19.4348C181.325 25.1603 179.451 29.8271 175.703 33.4176C171.954 37.017 167.035 38.8167 160.946 38.8167ZM153.238 27.2423C155.174 29.236 157.743 30.2241 160.946 30.2241C164.149 30.2241 166.727 29.236 168.681 27.2687C170.634 25.2926 171.611 22.6813 171.611 19.4348C171.611 16.1883 170.643 13.5682 168.707 11.5744C166.771 9.58066 164.184 8.5926 160.946 8.5926C157.779 8.5926 155.218 9.58948 153.265 11.5744C151.311 13.5682 150.334 16.1883 150.334 19.4348C150.334 22.646 151.302 25.2485 153.238 27.2423Z" fill="white"/>
<path d="M213.046 0.785476H222.232V38.1377H217.481L196.785 17.4943V38.0318H187.598V0.732544H192.297L213.046 21.323V0.785476Z" fill="white"/>
<path d="M14.5178 74.0001C10.1446 74.0001 6.13215 73.1179 2.47168 71.3623L5.02345 65.5751C8.21756 67.1719 11.2797 67.9747 14.2098 67.9747C16.876 67.9747 18.2135 67.1454 18.2135 65.4957C18.2135 64.7106 17.8439 64.1019 17.1136 63.6872C16.3832 63.2638 15.1337 62.8844 13.3827 62.5492C9.88061 61.8699 7.24965 60.8907 5.49861 59.6203C3.74756 58.3499 2.86764 56.3915 2.86764 53.736C2.86764 50.9836 3.80036 48.8134 5.65699 47.2431C7.51363 45.6728 10.2238 44.8788 13.7787 44.8788C17.8879 44.8788 21.4428 45.6022 24.4521 47.0402L21.6276 52.7039C18.803 51.5747 16.1984 51.0101 13.8139 51.0101C11.3061 51.0101 10.0478 51.7335 10.0478 53.1714C10.0478 53.9831 10.5054 54.5918 11.4205 54.9976C12.3356 55.4034 13.9546 55.8533 16.2864 56.3562C17.7471 56.6473 18.9966 56.9825 20.0349 57.3795C21.0644 57.7765 22.0147 58.2882 22.877 58.9322C23.7394 59.5762 24.3905 60.3966 24.8217 61.3935C25.2528 62.3904 25.4728 63.5725 25.4728 64.9311C25.4728 70.9918 21.8211 74.0001 14.5178 74.0001Z" fill="#FFCD1B"/>
<path d="M43.3274 74C38.8046 74 35.1969 72.6855 32.5132 70.0654C29.8294 67.4452 28.4919 63.8723 28.4919 59.3643C28.4919 54.8828 29.8294 51.3451 32.5132 48.7603C35.1969 46.1755 38.7958 44.8875 43.3274 44.8875C45.9144 44.8875 48.2726 45.3638 50.3932 46.3254C52.5138 47.287 54.2648 48.6015 55.6551 50.2777L50.2788 54.7592C49.5749 53.7359 48.6333 52.9154 47.4718 52.2979C46.3103 51.6804 45.0081 51.3716 43.565 51.3716C41.154 51.3716 39.2446 52.0774 37.8367 53.4977C36.42 54.918 35.7161 56.8677 35.7161 59.3643C35.7161 61.8786 36.42 63.8723 37.8367 65.328C39.2534 66.7836 41.1628 67.5158 43.565 67.5158C46.5215 67.5158 48.7565 66.4042 50.2788 64.1723L55.6551 68.698C52.7162 72.2356 48.6157 74 43.3274 74Z" fill="#FFCD1B"/>
<path d="M59.2969 73.4176V45.4343H66.1691V57.3528H77.1593V45.4343H84.0315V73.4088H77.1593V63.6517H66.1691V73.4088H59.2969V73.4176Z" fill="#FFCD1B"/>
<path d="M89.5229 73.4176V45.4343H110.597V51.5303H96.1927V56.8058H108.318V62.5137H96.1927V67.3128H111.107V73.4088H89.5229V73.4176Z" fill="#FFCD1B"/>
<path d="M115.418 73.4176V45.4343H126.796C131.195 45.4343 134.61 46.5988 137.056 48.919C139.502 51.2392 140.725 54.6268 140.725 59.0907C140.725 63.5723 139.537 67.0834 137.17 69.6153C134.803 72.1473 131.371 73.4088 126.866 73.4088H115.418V73.4176ZM122.088 67.154H127.069C128.978 67.154 130.527 66.4835 131.723 65.1514C132.911 63.8105 133.51 61.7903 133.51 59.0907C133.51 56.7529 132.911 54.9444 131.706 53.6652C130.5 52.3772 128.908 51.7332 126.919 51.7332H122.088V67.154Z" fill="#FFCD1B"/>
<path d="M157.531 73.9999C153.553 73.9999 150.5 73.0118 148.371 71.0445C146.241 69.0772 145.177 66.1924 145.177 62.3902V45.4343H152.198V60.7052C152.198 63.0959 152.638 64.8162 153.509 65.8748C154.389 66.9335 155.727 67.4716 157.531 67.4716C159.361 67.4716 160.725 66.9423 161.613 65.8748C162.502 64.8162 162.951 63.0871 162.951 60.7052V45.4343H169.937V62.3902C169.937 66.2189 168.89 69.1125 166.796 71.0622C164.693 73.0295 161.613 73.9999 157.531 73.9999Z" fill="#FFCD1B"/>
<path d="M175.192 73.4176V45.4343H182.213V66.9599H195.791V73.4088H175.192V73.4176Z" fill="#FFCD1B"/>
<path d="M199.68 73.4176V45.4343H220.754V51.5303H206.35V56.8058H218.475V62.5137H206.35V67.3128H221.265V73.4088H199.68V73.4176Z" fill="#FFCD1B"/>
</svg>
